<?xml version="1.0" standalone="no"?>
<!DOCTYPE svg PUBLIC "-//W3C//DTD SVG 20010904//EN"
 "http://www.w3.org/TR/2001/REC-SVG-20010904/DTD/svg10.dtd">
<svg version="1.0" xmlns="http://www.w3.org/2000/svg"
 width="2000.000000pt" height="1500.000000pt" viewBox="0 0 2000.000000 1500.000000"
 preserveAspectRatio="xMidYMid meet">

<g transform="translate(0.000000,1500.000000) scale(0.100000,-0.100000)"
fill="#000000" stroke="none">
<path d="M9620 11803 c-514 -24 -1089 -158 -1543 -359 -245 -108 -544 -277
-549 -309 -2 -13 -54 -54 -148 -119 -266 -181 -556 -429 -761 -651 -361 -391
-648 -864 -835 -1375 -59 -162 -104 -324 -91 -332 7 -4 -2 -60 -26 -170 -91
-411 -128 -824 -107 -1173 22 -378 88 -697 209 -1017 36 -96 108 -257 95 -213
-17 61 -17 77 1 74 11 -3 29 -33 49 -84 32 -79 129 -291 208 -452 43 -89 97
-167 128 -183 14 -7 4 21 -40 113 -205 432 -347 914 -395 1342 -26 232 -13
289 21 89 9 -54 23 -115 32 -134 l16 -35 4 30 c2 17 -1 181 -7 365 -8 235 -8
375 -1 467 9 115 16 162 47 301 3 12 10 25 15 28 5 3 7 -5 4 -18 -11 -47 -25
-207 -31 -343 -14 -290 34 -710 111 -973 13 -47 17 -52 31 -40 15 12 16 8 11
-33 -5 -40 -3 -46 11 -42 14 3 39 -46 126 -249 171 -401 244 -536 395 -737 48
-64 131 -163 184 -219 53 -57 96 -107 96 -112 0 -5 20 -33 44 -63 56 -69 66
-89 59 -116 -4 -15 9 -47 42 -104 113 -196 259 -381 425 -542 57 -55 160 -155
229 -222 143 -138 225 -207 356 -298 339 -237 789 -438 1247 -559 143 -37 234
-53 483 -85 127 -17 255 -36 285 -43 77 -18 365 -15 520 6 615 83 1029 200
1466 414 211 104 295 153 499 288 947 627 1591 1585 1814 2699 169 839 85
1761 -230 2526 -64 156 -86 199 -103 199 -8 0 -49 67 -94 153 -105 201 -165
302 -284 478 -395 585 -927 1055 -1543 1362 -118 59 -316 147 -329 147 -4 0
-5 -6 -4 -12 4 -17 -5 -15 -148 37 -346 125 -655 196 -1114 254 -352 45 -596
57 -880 44z m621 -1010 c19 -22 1 -33 -34 -21 -40 14 -40 14 -33 27 9 14 54
10 67 -6z m-181 -3 c0 -5 -4 -10 -10 -10 -5 0 -10 -7 -10 -15 0 -17 16 -20 25
-5 9 14 71 12 135 -5 30 -8 72 -15 93 -15 30 0 39 4 47 24 14 39 28 40 81 6
27 -18 52 -30 55 -27 3 3 -4 8 -15 12 -12 3 -21 10 -21 14 0 13 93 -9 110 -25
12 -12 10 -14 -15 -15 -29 -1 -29 -1 -5 -8 27 -7 60 13 60 37 0 9 6 12 16 8 9
-3 29 -6 45 -6 19 0 29 -5 29 -15 0 -20 30 -19 44 0 15 20 77 9 83 -15 2 -9
18 -24 34 -34 47 -28 34 -34 -34 -18 -59 14 -117 11 -117 -6 0 -4 64 -22 143
-41 165 -39 402 -114 567 -178 206 -81 560 -267 560 -294 0 -5 5 -9 12 -9 26
0 135 -83 162 -124 32 -47 79 -81 100 -73 8 3 28 -15 50 -47 20 -29 93 -116
162 -192 69 -76 148 -173 176 -214 27 -41 54 -77 58 -80 4 -3 15 -20 24 -38 9
-18 26 -42 37 -53 10 -10 14 -19 8 -19 -8 0 -7 -5 2 -16 10 -12 10 -17 1 -23
-9 -5 -4 -15 14 -32 29 -26 63 -93 64 -123 0 -20 0 -20 -15 0 -15 20 -15 20
-15 -23 0 -5 13 -8 29 -9 37 -1 61 -11 61 -24 0 -5 -6 -10 -14 -10 -21 0 -28
-15 -20 -46 l7 -27 17 24 c16 20 20 21 34 10 14 -12 15 -17 3 -35 -13 -20 -12
-21 17 -21 29 0 31 -2 32 -40 0 -22 6 -50 12 -62 15 -26 16 -65 2 -79 -14 -14
42 -199 70 -229 13 -14 29 -25 37 -25 7 0 13 -4 13 -10 0 -5 -7 -10 -15 -10
-18 0 -22 -65 -5 -75 6 -4 18 -24 26 -45 9 -21 22 -41 30 -44 18 -7 18 -31 -2
-83 -16 -41 -16 -45 6 -98 12 -31 31 -61 40 -68 17 -12 17 -18 6 -78 -11 -61
-11 -66 5 -62 27 7 62 -16 54 -35 -22 -52 -24 -91 -8 -172 13 -72 14 -118 7
-295 -5 -115 -9 -270 -9 -342 0 -104 -3 -133 -13 -133 -19 0 -46 -70 -33 -83
17 -17 14 -112 -5 -128 -28 -23 -42 -63 -53 -153 -12 -99 -26 -128 -77 -158
-31 -18 -34 -24 -34 -68 0 -38 -12 -72 -61 -171 -38 -78 -63 -118 -68 -110 -9
14 -41 -61 -41 -97 0 -19 -3 -21 -19 -13 -16 9 -19 6 -24 -18 -3 -15 -28 -52
-55 -82 -79 -87 -119 -145 -136 -197 -12 -34 -41 -76 -101 -143 -47 -52 -93
-111 -102 -132 -13 -29 -19 -34 -25 -22 -14 23 -37 18 -48 -11 -6 -14 -21 -40
-35 -58 -14 -18 -30 -47 -36 -64 -9 -28 -16 -32 -46 -32 -34 0 -34 -1 -28 -32
9 -43 9 -42 47 -29 56 20 76 39 137 129 63 93 99 132 126 136 9 1 26 20 39 42
24 43 42 47 39 8 -1 -15 4 -24 13 -24 8 0 14 4 14 9 0 16 52 72 93 102 l40 29
17 -33 c18 -33 12 -57 -15 -57 -25 0 -66 -43 -106 -111 -33 -58 -48 -74 -87
-92 -37 -17 -48 -28 -50 -50 -2 -18 -9 -27 -22 -27 -22 0 -100 -86 -100 -111
0 -25 -38 -49 -77 -49 -18 0 -33 -4 -33 -10 0 -5 5 -10 10 -10 6 0 10 -4 10
-10 0 -5 -13 -10 -28 -10 -37 0 -109 -46 -155 -100 -29 -34 -39 -41 -50 -32
-11 9 -20 5 -43 -19 -16 -17 -55 -44 -86 -60 -62 -31 -80 -49 -49 -49 33 0 68
17 163 80 49 33 98 60 108 60 9 0 46 26 81 58 35 33 114 94 174 136 106 75
195 152 195 168 0 4 -7 8 -16 8 -9 0 -14 6 -11 13 3 8 20 11 49 9 44 -3 45 -2
93 59 26 34 87 107 135 163 128 151 201 244 265 343 86 131 87 131 29 -4 -9
-21 -37 -60 -63 -88 -26 -27 -79 -104 -118 -171 -78 -132 -142 -210 -196 -239
-26 -14 -37 -27 -42 -51 -3 -18 -27 -61 -52 -96 -26 -35 -57 -81 -70 -103 -19
-34 -28 -40 -55 -40 -29 0 -33 -3 -36 -30 -5 -42 -35 -71 -116 -112 -78 -39
-116 -73 -116 -103 0 -11 -4 -20 -9 -20 -6 0 -59 -33 -119 -74 -60 -41 -129
-84 -153 -97 -76 -39 -403 -180 -429 -185 -47 -9 -60 -15 -60 -29 0 -20 -92
-75 -116 -69 -34 9 -224 -35 -309 -72 -65 -27 -94 -34 -147 -34 -73 0 -207
-25 -223 -41 -7 -8 8 -9 50 -4 l60 7 -39 -21 c-46 -24 -82 -19 -109 16 -24 30
-67 31 -67 2 0 -18 4 -21 30 -16 35 8 44 -3 25 -29 -12 -16 -26 -19 -107 -18
-51 1 -100 2 -108 3 -8 1 -60 -5 -114 -13 -104 -16 -116 -15 -116 10 0 11 -4
12 -18 5 -10 -5 -47 -8 -82 -5 l-65 4 69 -24 69 -23 -27 -18 c-25 -16 -28 -16
-45 -1 -9 9 -24 16 -33 16 -8 0 -18 3 -21 7 -4 3 -60 5 -125 4 -98 -2 -155 4
-356 39 -131 22 -271 43 -311 47 -60 5 -72 9 -68 22 5 20 -63 66 -73 50 -4 -8
-27 -9 -65 -5 -47 6 -64 13 -91 40 -27 26 -51 37 -128 56 -77 19 -101 30 -127
56 -18 17 -33 41 -33 53 0 16 -6 21 -27 21 -47 1 -100 25 -198 90 -89 59 -111
80 -83 80 6 0 -11 11 -38 25 -27 14 -55 25 -63 25 -9 0 -11 8 -7 25 5 19 2 25
-10 25 -9 0 -60 45 -113 101 -66 69 -113 110 -152 129 -41 21 -75 51 -133 119
-43 50 -92 99 -109 108 -18 9 -26 18 -19 20 6 3 12 14 12 26 -1 22 -12 31
-113 99 -43 28 -48 35 -43 60 6 33 -4 41 -40 32 -24 -6 -26 -10 -20 -42 7 -48
37 -86 126 -163 45 -39 84 -82 98 -109 14 -29 35 -51 57 -63 45 -22 48 -51 5
-45 -38 6 -38 -1 4 -34 18 -15 44 -48 57 -75 30 -62 34 -70 24 -60 -5 4 -19 0
-32 -9 -28 -18 -53 -5 -53 29 0 18 -32 53 -123 134 -25 23 -38 45 -44 75 -8
39 -12 43 -40 46 -25 3 -30 7 -26 23 6 23 -88 124 -109 117 -21 -7 -37 24 -38
70 0 23 -4 42 -10 42 -5 0 -10 -4 -10 -10 0 -5 -5 -10 -11 -10 -7 0 -9 11 -6
28 7 36 -19 93 -71 157 -35 42 -39 51 -26 58 14 8 13 12 -6 32 -12 13 -39 59
-60 102 l-39 78 0 -45 c-1 -34 11 -70 49 -149 28 -57 50 -110 50 -118 0 -8 20
-42 44 -76 92 -129 147 -270 111 -283 -18 -7 -188 145 -251 225 -36 46 -41 57
-31 72 7 11 17 19 24 19 18 0 16 57 -2 72 -9 7 -22 19 -30 26 -8 8 -24 11 -35
7 -15 -5 -23 0 -32 22 -6 15 -17 35 -24 43 -7 8 -42 110 -78 225 -81 264 -96
306 -133 380 -26 52 -30 68 -25 118 5 69 -13 219 -37 297 -13 41 -15 65 -8 95
8 38 3 160 -10 233 -9 54 -23 36 -23 -32 0 -42 -5 -67 -14 -75 -11 -9 -15 -4
-20 26 -9 58 -7 228 4 327 6 49 12 135 13 192 2 88 4 104 18 104 11 0 16 9 16
28 0 15 3 50 7 77 l6 50 -34 -70 c-19 -38 -38 -87 -41 -109 -5 -25 -13 -40
-26 -43 -17 -5 -18 -16 -16 -137 1 -148 -11 -207 -42 -199 -16 4 -21 -5 -32
-66 -7 -39 -16 -71 -20 -71 -25 0 -32 91 -36 425 -4 294 -2 351 10 360 8 5 21
25 31 43 9 17 19 32 21 32 3 0 3 -35 -1 -77 -4 -60 -2 -82 8 -97 13 -17 16 -8
27 85 30 252 91 548 158 769 70 232 219 562 347 767 104 168 299 418 317 407
6 -3 7 -28 3 -61 l-7 -55 40 43 c22 24 86 103 143 174 149 188 205 250 280
311 37 30 70 54 74 54 16 0 2 -25 -41 -73 -35 -37 -39 -44 -15 -24 32 26 67
38 145 52 38 6 52 25 18 25 -11 0 -22 4 -25 8 -6 10 123 127 131 119 7 -8 58
18 115 60 44 32 49 33 92 23 24 -5 53 -7 63 -3 27 10 53 46 49 65 -4 17 12 28
40 28 8 0 60 20 117 44 216 92 399 153 482 160 88 8 178 30 209 52 20 14 20
14 -4 15 -23 0 -23 1 -5 8 26 10 55 2 55 -15 0 -21 22 -28 35 -11 9 12 44 19
145 28 114 11 133 15 138 31 4 18 22 22 77 18 65 -6 70 -7 69 -24 -1 -12 7
-16 31 -16 35 0 67 24 43 33 -7 2 7 9 32 15 60 13 70 14 70 2z m-1640 -378 c0
-23 -26 -38 -55 -32 l-30 6 30 17 c33 18 55 22 55 9z m-905 -5277 c14 -25 40
-61 57 -81 28 -32 31 -33 44 -17 22 30 34 4 21 -45 l-11 -42 79 -82 c88 -89
87 -89 -35 -9 -96 62 -233 190 -212 198 8 3 34 -10 60 -28 l46 -33 -26 34
c-21 28 -64 150 -53 150 2 0 15 -20 30 -45z m416 -595 c9 0 19 7 23 15 9 25
24 18 94 -48 105 -98 200 -170 297 -227 96 -56 411 -212 584 -290 91 -41 106
-51 106 -71 0 -21 5 -24 38 -24 45 0 72 -29 38 -40 -30 -9 -87 4 -179 41 -45
19 -98 34 -117 34 -24 0 -48 10 -79 34 -25 19 -124 73 -219 120 -97 47 -183
96 -194 109 -10 13 -29 28 -42 32 -12 3 -52 30 -89 58 -37 28 -89 65 -117 81
-27 17 -50 37 -51 44 -2 31 -5 32 -34 17 -38 -20 -36 -20 -44 17 -4 22 -25 50
-62 85 l-55 53 43 -20 c24 -11 50 -20 59 -20z"/>
<path d="M8353 10338 c-11 -13 -26 -33 -32 -45 -10 -21 -10 -21 21 -12 43 12
59 29 52 57 -8 28 -15 28 -41 0z"/>
<path d="M12930 8835 c7 -9 15 -13 17 -11 7 7 -7 26 -19 26 -6 0 -6 -6 2 -15z"/>
<path d="M8956 7417 c-14 -18 -59 -113 -100 -210 -94 -221 -126 -283 -241
-477 -51 -85 -95 -165 -99 -177 -19 -62 79 -143 278 -229 47 -20 129 -65 183
-100 54 -35 108 -64 121 -64 31 0 82 52 82 84 0 30 -49 89 -102 122 -21 13
-72 38 -113 54 -94 37 -183 82 -214 107 l-25 20 63 107 c80 138 228 435 276
555 60 151 58 198 -10 227 -51 21 -71 17 -99 -19z"/>
<path d="M10383 7300 c-34 -21 -49 -55 -39 -92 3 -13 30 -66 60 -118 52 -91
89 -175 226 -505 77 -187 136 -309 167 -346 30 -35 78 -39 117 -8 37 29 34 61
-19 174 l-44 96 31 65 c27 54 36 64 58 64 36 -1 95 -30 169 -85 79 -58 175
-105 217 -105 48 0 115 40 136 82 17 33 18 41 6 65 -14 29 -27 31 -94 18 -35
-8 -82 13 -174 75 -77 52 -155 90 -185 90 -14 0 -25 2 -25 5 0 2 34 64 75 137
75 132 86 169 65 209 -8 14 -21 19 -55 19 -39 0 -47 -5 -80 -42 -34 -41 -177
-312 -204 -388 -11 -33 -13 -34 -26 -17 -7 11 -37 76 -65 145 -68 167 -194
431 -219 460 -24 27 -56 28 -98 2z"/>
<path d="M9436 6837 c-15 -15 -26 -38 -26 -52 0 -66 113 -506 154 -598 29 -67
66 -97 118 -97 90 0 114 35 199 281 53 156 69 187 69 135 0 -33 98 -316 126
-363 42 -71 110 -90 172 -47 33 23 46 54 148 355 115 339 117 369 36 385 -67
14 -105 -40 -147 -207 -14 -57 -44 -160 -67 -229 l-42 -125 -18 42 c-15 35
-68 219 -118 410 -25 100 -103 136 -152 71 -14 -18 -50 -108 -81 -199 -31 -92
-70 -198 -87 -235 -27 -57 -33 -66 -40 -49 -6 15 -61 280 -96 462 -7 37 -46
73 -86 80 -30 4 -41 1 -62 -20z"/>
<path d="M7232 5451 c-11 -6 -8 -14 14 -35 48 -44 69 -23 26 27 -17 19 -21 20
-40 8z"/>
<path d="M12483 5397 c-30 -33 0 -39 37 -8 l35 29 -28 -1 c-16 -1 -36 -10 -44
-20z"/>
<path d="M7710 5145 c0 -13 10 -36 23 -50 l22 -26 -1 28 c-2 37 -12 60 -30 67
-10 4 -14 -2 -14 -19z"/>
</g>
</svg>
